<svg width="16" height="16" viewBox="0 0 16 16" fill="none" xmlns="http://www.w3.org/2000/svg">
<path fill-rule="evenodd" clip-rule="evenodd" d="M8.00008 2.00008C4.68637 2.00008 2.00008 4.68637 2.00008 8.00008C2.00008 11.3138 4.68637 14.0001 8.00008 14.0001C11.3138 14.0001 14.0001 11.3138 14.0001 8.00008C14.0001 4.68637 11.3138 2.00008 8.00008 2.00008ZM0.666748 8.00008C0.666748 3.94999 3.94999 0.666748 8.00008 0.666748C12.0502 0.666748 15.3334 3.94999 15.3334 8.00008C15.3334 12.0502 12.0502 15.3334 8.00008 15.3334C3.94999 15.3334 0.666748 12.0502 0.666748 8.00008Z" fill="#258825"/>
<path fill-rule="evenodd" clip-rule="evenodd" d="M4.70027 7.8048C4.96062 7.54445 5.38273 7.54445 5.64308 7.8048L7.05729 9.21901L10.3571 5.91918C10.6175 5.65883 11.0396 5.65883 11.2999 5.91918C11.5603 6.17953 11.5603 6.60164 11.2999 6.86199L7.52869 10.6332C7.26834 10.8936 6.84623 10.8936 6.58589 10.6332L4.70027 8.74761C4.43992 8.48726 4.43992 8.06515 4.70027 7.8048Z" fill="#258825"/>
</svg>
