<svg width="12" height="12" viewBox="0 0 12 12" fill="none" xmlns="http://www.w3.org/2000/svg">
<path fill-rule="evenodd" clip-rule="evenodd" d="M11.0893 1.92259C11.4147 1.59715 11.4147 1.06951 11.0893 0.744078C10.7638 0.418641 10.2362 0.418641 9.91074 0.744078L6 4.65482L2.08926 0.744078C1.76382 0.418641 1.23618 0.418641 0.910745 0.744078C0.585308 1.06951 0.585308 1.59715 0.910745 1.92259L4.82149 5.83333L0.744078 9.91074C0.418641 10.2362 0.418641 10.7638 0.744078 11.0893C1.06951 11.4147 1.59715 11.4147 1.92259 11.0893L6 7.01185L10.0774 11.0893C10.4028 11.4147 10.9305 11.4147 11.2559 11.0893C11.5814 10.7638 11.5814 10.2362 11.2559 9.91075L7.17851 5.83333L11.0893 1.92259Z" fill="#2B2B2B"/>
</svg>
