<svg width="16" height="12" viewBox="0 0 16 12" fill="none" xmlns="http://www.w3.org/2000/svg">
<path fill-rule="evenodd" clip-rule="evenodd" d="M7.99913 0.667452C9.37069 0.644421 10.713 1.1888 11.8853 1.95976C13.0665 2.73662 14.1248 3.77543 14.9392 4.82002L14.9411 4.82249C15.2003 5.15824 15.3334 5.57804 15.3334 5.99938C15.3334 6.42072 15.2003 6.84052 14.9411 7.17626L14.9394 7.17849C14.1432 8.20074 13.0959 9.24006 11.9157 10.0229C10.7443 10.8 9.39259 11.3564 7.99913 11.3327C6.60566 11.3564 5.25409 10.8 4.08294 10.0229C2.90302 9.23998 1.85613 8.20061 1.0605 7.17829L1.05892 7.17627C0.79969 6.84052 0.666687 6.42072 0.666687 5.99938C0.666687 5.57804 0.799694 5.15824 1.05893 4.82249L1.06061 4.82031C1.87419 3.77557 2.93209 2.73669 4.11316 1.95979C5.28525 1.1888 6.62757 0.644421 7.99913 0.667452ZM2.11363 5.6382C2.04714 5.72475 2.00002 5.85283 2.00002 5.99938C2.00002 6.14596 2.04717 6.27407 2.11368 6.36062C2.83735 7.29023 3.78151 8.22273 4.82013 8.91189C5.8643 9.60473 6.95448 10.0196 7.98604 9.99937C7.99477 9.9992 8.00349 9.9992 8.01222 9.99937C9.04379 10.0196 10.1341 9.60472 11.1786 8.91184C12.2175 8.22268 13.1621 7.29019 13.8864 6.36055C13.9529 6.27399 14 6.14592 14 5.99938C14 5.85292 13.953 5.72491 13.8865 5.63836C13.1461 4.68894 12.192 3.75735 11.1526 3.07377C10.1074 2.38634 9.02478 1.98113 8.01206 2.00077C8.00344 2.00094 7.99482 2.00094 7.98621 2.00077C6.97348 1.98113 5.8909 2.38635 4.8459 3.07373C3.8067 3.75731 2.85311 4.68889 2.11363 5.6382Z" fill="black"/>
<path fill-rule="evenodd" clip-rule="evenodd" d="M8.00002 4.66675C7.26364 4.66675 6.66669 5.2637 6.66669 6.00008C6.66669 6.73646 7.26364 7.33342 8.00002 7.33342C8.7364 7.33342 9.33335 6.73646 9.33335 6.00008C9.33335 5.2637 8.7364 4.66675 8.00002 4.66675ZM5.33335 6.00008C5.33335 4.52732 6.52726 3.33342 8.00002 3.33342C9.47278 3.33342 10.6667 4.52732 10.6667 6.00008C10.6667 7.47284 9.47278 8.66675 8.00002 8.66675C6.52726 8.66675 5.33335 7.47284 5.33335 6.00008Z" fill="black"/>
</svg>
