<svg width="16" height="16" viewBox="0 0 16 16" fill="none" xmlns="http://www.w3.org/2000/svg">
<path fill-rule="evenodd" clip-rule="evenodd" d="M8.00008 1.99984C4.68637 1.99984 2.00008 4.68613 2.00008 7.99984C2.00008 11.3135 4.68637 13.9998 8.00008 13.9998C11.3138 13.9998 14.0001 11.3135 14.0001 7.99984C14.0001 4.68613 11.3138 1.99984 8.00008 1.99984ZM0.666748 7.99984C0.666748 3.94975 3.94999 0.666504 8.00008 0.666504C12.0502 0.666504 15.3334 3.94975 15.3334 7.99984C15.3334 12.0499 12.0502 15.3332 8.00008 15.3332C3.94999 15.3332 0.666748 12.0499 0.666748 7.99984Z" fill="#666666"/>
<path d="M8.66675 4.1665C8.66675 4.62674 8.29365 4.99984 7.83341 4.99984C7.37318 4.99984 7.00008 4.62674 7.00008 4.1665C7.00008 3.70627 7.37318 3.33317 7.83341 3.33317C8.29365 3.33317 8.66675 3.70627 8.66675 4.1665Z" fill="#666666"/>
<path fill-rule="evenodd" clip-rule="evenodd" d="M6.33341 6.6665C6.33341 6.29831 6.63189 5.99984 7.00008 5.99984H7.83341C8.2016 5.99984 8.50008 6.29831 8.50008 6.6665V10.6665H9.33341C9.7016 10.6665 10.0001 10.965 10.0001 11.3332C10.0001 11.7014 9.7016 11.9998 9.33341 11.9998H7.83341C7.46522 11.9998 7.16675 11.7014 7.16675 11.3332V7.33317H7.00008C6.63189 7.33317 6.33341 7.03469 6.33341 6.6665Z" fill="#666666"/>
</svg>
