<svg width="16" height="16" viewBox="0 0 16 16" fill="none" xmlns="http://www.w3.org/2000/svg">
<path fill-rule="evenodd" clip-rule="evenodd" d="M8.00008 2.00008C4.68637 2.00008 2.00008 4.68637 2.00008 8.00008C2.00008 11.3138 4.68637 14.0001 8.00008 14.0001C11.3138 14.0001 14.0001 11.3138 14.0001 8.00008C14.0001 4.68637 11.3138 2.00008 8.00008 2.00008ZM0.666748 8.00008C0.666748 3.94999 3.94999 0.666748 8.00008 0.666748C12.0502 0.666748 15.3334 3.94999 15.3334 8.00008C15.3334 12.0502 12.0502 15.3334 8.00008 15.3334C3.94999 15.3334 0.666748 12.0502 0.666748 8.00008Z" fill="#C51111"/>
<path d="M9.00008 11.3334C9.00008 11.8857 8.55237 12.3334 8.00008 12.3334C7.4478 12.3334 7.00008 11.8857 7.00008 11.3334C7.00008 10.7811 7.4478 10.3334 8.00008 10.3334C8.55237 10.3334 9.00008 10.7811 9.00008 11.3334Z" fill="#C51111"/>
<path fill-rule="evenodd" clip-rule="evenodd" d="M8.00008 3.33341C8.36827 3.33341 8.66675 3.63189 8.66675 4.00008V8.66675C8.66675 9.03494 8.36827 9.33341 8.00008 9.33341C7.63189 9.33341 7.33341 9.03494 7.33341 8.66675V4.00008C7.33341 3.63189 7.63189 3.33341 8.00008 3.33341Z" fill="#C51111"/>
</svg>
